<svg width="501" height="181" viewBox="0 0 501 181" fill="none" xmlns="http://www.w3.org/2000/svg">
<path d="M32.2498 99.5374C32.5005 83.9977 35.1853 61.0092 39.8515 41.7329L0.259033 61.578L40.9217 168.943L128.075 180.22L135.983 171.726C111.563 170.833 68.0995 154.309 45.5146 139.246C35.644 132.653 32.0969 110.356 32.2498 99.5374Z" fill="#8b8b8d"/>
<path d="M190.375 50.1482C187.354 32.4925 163.466 15.1121 144.63 10.189C112.413 1.74952 69.9587 -6.11512 54.1131 8.56228C48.3155 13.9318 43.4964 26.7133 39.8699 41.7087L84.8808 19.1545L178.223 40.1737L185.562 118.453L135.983 171.726C138.658 171.859 141.34 171.724 143.988 171.322C159.32 168.784 180.553 152.364 186.112 135.173C191.488 118.557 195.268 78.763 190.375 50.1482Z" fill="#8c8c8980"/>
<path d="M178.223 40.1735L84.8807 19.1787L39.8698 41.733C35.2036 61.0337 32.5311 83.9977 32.2681 99.5374C32.0969 110.356 35.6439 132.653 45.5145 139.246C68.075 154.309 111.563 170.833 135.983 171.726L185.562 118.453L178.223 40.1735Z" fill="#706f71"/>
<path d="M51.2083 118.6L58.3452 110.191C63.2377 114.802 69.7202 117.903 75.9948 117.903C83.5721 117.903 87.7062 114.49 87.7062 109.262C87.7062 103.758 83.3519 101.99 77.1935 99.3788L67.9283 95.3609C61.2012 92.5722 54.1866 87.2394 54.1866 77.3077C54.1866 66.4526 63.7758 58.0742 77.0956 58.0742C84.9685 58.0891 92.5175 61.2098 98.1027 66.7583L91.8159 74.5312C87.4799 70.8619 82.8871 68.7214 77.0956 68.7214C70.717 68.7214 66.5707 71.6875 66.5707 76.5922C66.5707 81.8638 71.7017 83.8086 77.3525 86.1203L86.4892 89.9486C94.5924 93.3122 100.219 98.4493 100.219 108.295C100.219 119.334 91.0453 128.556 75.7563 128.556C66.5888 128.564 57.7806 124.991 51.2083 118.6Z" fill="#23232dfa"/>
<path d="M107.667 101.794C107.667 84.774 119.721 74.9524 133.353 74.9524C138.878 74.9071 144.216 76.9543 148.293 80.6827L142.386 88.584C139.695 86.2295 137.151 84.9147 133.989 84.9147C125.812 84.9147 120.174 91.6418 120.174 101.824C120.174 112.007 125.745 118.654 133.628 118.654C137.585 118.654 141.218 116.716 144.117 114.282L149.058 122.275C144.442 126.329 138.506 128.561 132.362 128.549C118.382 128.549 107.667 118.728 107.667 101.794Z" fill="#23232dfa"/>
<path d="M155.785 60.4954C155.785 56.4225 158.984 53.646 163.277 53.646C167.57 53.646 170.769 56.4225 170.769 60.4954C170.769 64.5684 167.57 67.3449 163.277 67.3449C158.984 67.3449 155.785 64.4889 155.785 60.4954ZM157.149 76.2003H169.325V127.302H157.174L157.149 76.2003Z" fill="#23232dfa"/>
<!-- <path d="M202.319 58.9424H220.782C236.169 58.9424 246.027 64.0305 246.027 78.5673C246.027 92.5108 236.279 99.134 221.198 99.134H209.205V127.302H202.319V58.9424ZM220.054 93.471C232.934 93.471 239.092 88.9944 239.092 78.5673C239.092 67.9873 232.628 64.5993 219.638 64.5993H209.242V93.471H220.054Z" fill="white"/>
<path d="M256.644 77.057H262.246L262.857 86.316H263.114C266.569 80.0292 271.603 75.8094 277.406 75.8094C279.193 75.7352 280.972 76.0918 282.592 76.8491L281.253 82.8179C279.747 82.2417 278.144 81.9594 276.532 81.9862C272.159 81.9862 266.961 85.2152 263.365 94.1684V127.315H256.638L256.644 77.057Z" fill="white"/>
<path d="M284.861 102.253C284.861 85.4656 295.612 75.7969 307.819 75.7969C320.025 75.7969 330.771 85.4656 330.771 102.253C330.771 118.881 320.025 128.55 307.819 128.55C295.612 128.55 284.861 118.881 284.861 102.253ZM323.786 102.253C323.786 89.9544 317.151 81.5088 307.819 81.5088C298.486 81.5088 291.851 89.9544 291.851 102.253C291.851 114.551 298.486 122.838 307.819 122.838C317.151 122.838 323.786 114.551 323.786 102.253Z" fill="white"/>
<path d="M336.569 77.5156L343.681 77.0447H361.27V82.6527H336.569V77.5156ZM343.43 67.6267C343.43 57.5238 347.999 51.6528 357.105 51.6528C359.817 51.7009 362.494 52.2827 364.982 53.3652L363.434 58.6124C361.613 57.7384 359.621 57.2769 357.6 57.2608C352.549 57.2608 350.151 60.9302 350.151 67.7918V127.303H343.424L343.43 67.6267Z" fill="white"/>
<path d="M371.177 61.0341C371.177 58.0313 373.452 56.1416 376.289 56.1416C379.127 56.1416 381.402 57.9763 381.402 61.0341C381.402 63.8717 379.127 65.8898 376.289 65.8898C373.452 65.8898 371.177 63.8717 371.177 61.0341ZM372.846 77.0569H379.573V127.315H372.846V77.0569Z" fill="white"/>
<path d="M396.691 118.741V52.9009H403.418V119.365C403.418 121.811 404.452 122.839 405.699 122.839C406.329 122.848 406.958 122.778 407.571 122.631L408.549 127.878C407.207 128.345 405.793 128.573 404.372 128.551C399.07 128.551 396.691 125.205 396.691 118.741Z" fill="white"/>
<path d="M415.283 102.253C415.283 85.8815 426.138 75.7969 437.562 75.7969C449.971 75.7969 457.242 84.6706 457.242 99.2318C457.259 100.686 457.149 102.139 456.912 103.574H422.016C422.426 115.151 429.355 123.046 439.752 123.046C444.858 123.046 448.968 121.376 452.71 118.826L455.236 123.462C451.035 126.153 446.063 128.55 438.981 128.55C425.826 128.55 415.283 118.728 415.283 102.253ZM451.169 98.5285C451.169 87.1963 446.051 81.307 437.66 81.307C429.942 81.307 422.982 87.6733 421.961 98.5285H451.169Z" fill="white"/>
<path d="M463.963 121.584L467.467 117.004C471.779 120.539 476.28 123.119 482.823 123.119C490.022 123.119 493.673 119.095 493.673 114.35C493.673 108.662 487.477 106.155 481.808 104.075C474.525 101.452 466.354 98.1555 466.354 89.6304C466.354 81.9553 472.47 75.7725 483.172 75.7725C488.654 75.8618 493.949 77.7796 498.216 81.2214L494.871 85.7042C491.44 83.154 487.881 81.1786 483.166 81.1786C476.145 81.1786 472.941 85.0743 472.941 89.2695C472.941 94.4861 478.61 96.4676 484.438 98.657C491.93 101.495 500.259 104.265 500.259 113.946C500.259 121.835 493.978 128.538 482.567 128.538C475.748 128.438 469.175 125.981 463.963 121.584Z" fill="white"/> -->
</svg>
