<svg version="1.1" id="Layer_1" xmlns="http://www.w3.org/2000/svg" xmlns:xlink="http://www.w3.org/1999/xlink" x="0px" y="0px"
	 width="100%" viewBox="0 0 225 225" enable-background="new 0 0 225 225" xml:space="preserve">
<path fill="#8c8c8e" opacity="1.000000" stroke="none" 
	d="
M126.000000,226.000000 
	C84.000000,226.000000 42.500004,226.000000 1.000005,226.000000 
	C1.000004,151.000000 1.000004,76.000015 1.000002,1.000016 
	C75.999992,1.000010 150.999985,1.000010 225.999969,1.000005 
	C225.999985,75.999985 225.999985,150.999969 226.000000,225.999969 
	C192.833328,226.000000 159.666672,226.000000 126.000000,226.000000 
M28.588514,153.881653 
	C33.818581,156.396729 38.851788,159.508865 44.316975,161.310852 
	C58.625904,166.028793 73.037819,167.207779 86.751511,159.241180 
	C96.290062,153.700012 101.365295,145.231491 101.045723,134.100342 
	C100.737457,123.362885 93.929214,116.939629 85.158279,112.248589 
	C81.955101,110.535400 78.437561,109.409805 75.062904,108.017433 
	C66.164879,104.346153 57.114460,100.997787 48.420734,96.893776 
	C42.416386,94.059319 40.065990,88.549362 40.744553,81.928810 
	C41.380356,75.725487 45.255508,72.116234 50.776615,70.050018 
	C60.305840,66.483818 69.743385,67.582039 79.048279,70.969894 
	C83.059532,72.430374 86.977699,74.146500 91.170616,75.840401 
	C92.764610,72.535782 94.232803,69.491989 95.768265,66.308731 
	C81.875137,58.520966 67.717278,54.675545 52.291443,57.944233 
	C38.463257,60.874378 29.001986,70.064651 28.039581,81.049416 
	C26.792482,95.283691 33.213242,105.019753 47.882099,110.845840 
	C57.605656,114.707794 67.404686,118.379456 77.161339,122.158463 
	C83.336273,124.550179 87.667168,128.477005 88.087967,135.565994 
	C88.546707,143.294067 84.359810,148.021622 77.851990,151.128708 
	C68.394615,155.644012 58.738831,155.027328 49.290459,151.385788 
	C43.151424,149.019699 37.327866,145.835083 31.036890,142.863144 
	C29.679920,145.141159 28.037422,147.460907 26.928991,150.012634 
	C26.573462,150.831100 27.629057,152.262527 28.588514,153.881653 
M128.060989,105.884804 
	C128.512054,102.588730 128.724869,99.238831 129.455383,96.005905 
	C132.629761,81.957344 140.675018,72.227020 155.221313,69.536850 
	C161.825150,68.315536 168.755890,68.403084 175.514236,68.626366 
	C180.579453,68.793701 185.606140,70.127159 191.036484,71.003822 
	C191.820389,67.790421 192.581528,64.670387 193.323471,61.629036 
	C171.651871,53.607925 140.058868,54.748821 125.287415,74.603302 
	C110.733200,94.165787 111.246635,129.788452 126.838844,149.001587 
	C142.318878,168.076492 175.309586,167.695847 193.412888,159.789337 
	C192.587982,156.642609 191.744690,153.425812 191.003174,150.597214 
	C184.438370,151.693039 178.740189,152.843430 172.988358,153.567963 
	C153.581696,156.012589 137.081665,148.095810 131.690598,132.275894 
	C128.970993,124.295296 129.151489,115.326408 128.060989,105.884804 
z"/>
<path fill="#23232dfa" opacity="1.000000" stroke="none" 
	d="
M28.313778,153.647583 
	C27.629057,152.262527 26.573462,150.831100 26.928991,150.012634 
	C28.037422,147.460907 29.679920,145.141159 31.036890,142.863144 
	C37.327866,145.835083 43.151424,149.019699 49.290459,151.385788 
	C58.738831,155.027328 68.394615,155.644012 77.851990,151.128708 
	C84.359810,148.021622 88.546707,143.294067 88.087967,135.565994 
	C87.667168,128.477005 83.336273,124.550179 77.161339,122.158463 
	C67.404686,118.379456 57.605656,114.707794 47.882099,110.845840 
	C33.213242,105.019753 26.792482,95.283691 28.039581,81.049416 
	C29.001986,70.064651 38.463257,60.874378 52.291443,57.944233 
	C67.717278,54.675545 81.875137,58.520966 95.768265,66.308731 
	C94.232803,69.491989 92.764610,72.535782 91.170616,75.840401 
	C86.977699,74.146500 83.059532,72.430374 79.048279,70.969894 
	C69.743385,67.582039 60.305840,66.483818 50.776615,70.050018 
	C45.255508,72.116234 41.380356,75.725487 40.744553,81.928810 
	C40.065990,88.549362 42.416386,94.059319 48.420734,96.893776 
	C57.114460,100.997787 66.164879,104.346153 75.062904,108.017433 
	C78.437561,109.409805 81.955101,110.535400 85.158279,112.248589 
	C93.929214,116.939629 100.737457,123.362885 101.045723,134.100342 
	C101.365295,145.231491 96.290062,153.700012 86.751511,159.241180 
	C73.037819,167.207779 58.625904,166.028793 44.316975,161.310852 
	C38.851788,159.508865 33.818581,156.396729 28.313778,153.647583 
z"/>
<path fill="#23232dfa" opacity="1.000000" stroke="none" 
	d="
M128.040802,106.344597 
	C129.151489,115.326408 128.970993,124.295296 131.690598,132.275894 
	C137.081665,148.095810 153.581696,156.012589 172.988358,153.567963 
	C178.740189,152.843430 184.438370,151.693039 191.003174,150.597214 
	C191.744690,153.425812 192.587982,156.642609 193.412888,159.789337 
	C175.309586,167.695847 142.318878,168.076492 126.838844,149.001587 
	C111.246635,129.788452 110.733200,94.165787 125.287415,74.603302 
	C140.058868,54.748821 171.651871,53.607925 193.323471,61.629036 
	C192.581528,64.670387 191.820389,67.790421 191.036484,71.003822 
	C185.606140,70.127159 180.579453,68.793701 175.514236,68.626366 
	C168.755890,68.403084 161.825150,68.315536 155.221313,69.536850 
	C140.675018,72.227020 132.629761,81.957344 129.455383,96.005905 
	C128.724869,99.238831 128.512054,102.588730 128.040802,106.344597 
z"/>
</svg>